<svg version="1.1" id="Layer_1" xmlns="http://www.w3.org/2000/svg" xmlns:xlink="http://www.w3.org/1999/xlink" x="0px" y="0px"
	 width="100%" viewBox="0 0 256 256" enable-background="new 0 0 256 256" xml:space="preserve">
<path fill="#000000" opacity="1.000000" stroke="none" 
	d="
M169.000000,257.000000 
	C112.666672,257.000000 56.833340,257.000000 1.000008,257.000000 
	C1.000005,171.666672 1.000005,86.333351 1.000003,1.000019 
	C86.333321,1.000013 171.666641,1.000013 257.000000,1.000006 
	C257.000000,86.333313 257.000000,171.666626 257.000000,256.999969 
	C227.833328,257.000000 198.666672,257.000000 169.000000,257.000000 
M179.367142,98.195038 
	C198.237961,73.433289 218.069778,49.518642 242.199066,28.013704 
	C232.516754,28.013704 224.059021,27.975901 215.602509,28.061203 
	C214.536835,28.071951 213.310791,28.498804 212.442139,29.125330 
	C206.036972,33.745079 199.431244,38.141319 193.405411,43.220928 
	C181.420624,53.323769 169.767410,63.819935 157.342575,73.854630 
	C135.974701,57.377964 111.549484,52.349129 85.668709,57.413021 
	C62.696648,61.907791 43.919773,74.314018 30.990280,94.365540 
	C18.104057,114.349945 13.244132,135.954453 17.923309,159.613495 
	C22.219870,181.337936 32.838665,199.226593 50.275478,212.552673 
	C70.635582,228.112869 94.033539,233.210098 119.208313,228.928055 
	C143.771500,224.750015 163.227325,211.914246 176.800766,191.179352 
	C188.688736,173.019211 193.274658,152.862534 190.109924,131.024460 
	C188.434875,119.465752 184.937988,108.735535 179.367142,98.195038 
z"/>
<path fill="#AFEF8F" opacity="1.000000" stroke="none" 
	d="
M179.011703,98.738174 
	C184.937988,108.735535 188.434875,119.465752 190.109924,131.024460 
	C193.274658,152.862534 188.688736,173.019211 176.800766,191.179352 
	C163.227325,211.914246 143.771500,224.750015 119.208313,228.928055 
	C94.033539,233.210098 70.635582,228.112869 50.275478,212.552673 
	C32.838665,199.226593 22.219870,181.337936 17.923309,159.613495 
	C13.244132,135.954453 18.104057,114.349945 30.990280,94.365540 
	C43.919773,74.314018 62.696648,61.907791 85.668709,57.413021 
	C111.549484,52.349129 135.974701,57.377964 157.616791,74.335205 
	C156.705429,76.187111 155.547546,77.583565 154.330017,78.925911 
	C141.921036,92.606857 129.427338,106.212036 117.126343,119.989296 
	C112.714844,124.930214 108.761612,130.280289 104.314842,135.796417 
	C88.128952,124.530228 72.222115,113.458267 56.697224,102.652161 
	C51.365849,108.046165 46.504242,112.964890 41.846680,117.677162 
	C62.794575,147.967346 83.890930,178.472198 105.085747,209.119446 
	C105.661446,208.191879 106.535301,206.837021 107.357468,205.451508 
	C128.175705,170.368576 150.305359,136.150574 174.706329,103.434471 
	C175.969528,101.740807 177.568863,100.297844 179.011703,98.738174 
z"/>
<path fill="#019045" opacity="1.000000" stroke="none" 
	d="
M179.189423,98.466606 
	C177.568863,100.297844 175.969528,101.740807 174.706329,103.434471 
	C150.305359,136.150574 128.175705,170.368576 107.357468,205.451508 
	C106.535301,206.837021 105.661446,208.191879 105.085747,209.119446 
	C83.890930,178.472198 62.794575,147.967346 41.846680,117.677162 
	C46.504242,112.964890 51.365849,108.046165 56.697224,102.652161 
	C72.222115,113.458267 88.128952,124.530228 104.314842,135.796417 
	C108.761612,130.280289 112.714844,124.930214 117.126343,119.989296 
	C129.427338,106.212036 141.921036,92.606857 154.330017,78.925911 
	C155.547546,77.583565 156.705429,76.187111 157.934097,74.484688 
	C169.767410,63.819935 181.420624,53.323769 193.405411,43.220928 
	C199.431244,38.141319 206.036972,33.745079 212.442139,29.125330 
	C213.310791,28.498804 214.536835,28.071951 215.602509,28.061203 
	C224.059021,27.975901 232.516754,28.013704 242.199066,28.013704 
	C218.069778,49.518642 198.237961,73.433289 179.189423,98.466606 
z"/>
</svg>